<svg width="20" height="20" viewBox="0 0 20 20" fill="none" xmlns="http://www.w3.org/2000/svg">
<path fill-rule="evenodd" clip-rule="evenodd" d="M14.6501 6.35736C14.8454 6.1621 14.8454 5.84552 14.6501 5.65026C14.4549 5.45499 14.1383 5.455 13.943 5.65026L10.0002 9.59308L6.05705 5.64993C5.86179 5.45467 5.54521 5.45467 5.34994 5.64993C5.15468 5.8452 5.15468 6.16178 5.34994 6.35704L9.2931 10.3002L5.34994 14.2433C5.15468 14.4386 5.15468 14.7552 5.34994 14.9504C5.54521 15.1457 5.86179 15.1457 6.05705 14.9504L10.0002 11.0073L13.943 14.9501C14.1383 15.1454 14.4549 15.1454 14.6501 14.9501C14.8454 14.7549 14.8454 14.4383 14.6501 14.243L10.7073 10.3002L14.6501 6.35736Z" fill="#171717"/>
</svg>
