<svg width="18" height="18" viewBox="0 0 18 18" fill="none" xmlns="http://www.w3.org/2000/svg">
<mask id="path-1-inside-1_661_19971" fill="white">
<path fill-rule="evenodd" clip-rule="evenodd" d="M5.30439 2.17383C5.30445 1.98178 5.46016 1.82612 5.65222 1.82612H16.087C16.2791 1.82612 16.4348 1.98185 16.4348 2.17394V14.3479C16.4348 14.54 16.2791 14.6957 16.087 14.6957H14.3476V3.92097L14.3479 3.91308C14.3479 3.54991 14.2707 3.27793 14.1327 3.07485C13.8367 2.53772 13.2651 2.17383 12.6085 2.17383H5.30439ZM3.91309 2.17383C3.91315 1.21339 4.69176 0.434814 5.65222 0.434814H16.087C17.0475 0.434814 17.8261 1.21345 17.8261 2.17394V14.3479C17.8261 15.3084 17.0475 16.087 16.087 16.087H14.3476C14.3476 17.0474 13.5689 17.826 12.6085 17.826H2.1737C1.21321 17.826 0.43457 17.0474 0.43457 16.0869V3.91296C0.43457 2.95246 1.21321 2.17383 2.1737 2.17383H3.91309ZM2.1737 3.56513H12.6085C12.8006 3.56513 12.9563 3.72086 12.9563 3.91296V16.0869C12.9563 16.279 12.8006 16.4347 12.6085 16.4347H2.1737C1.9816 16.4347 1.82587 16.279 1.82587 16.0869V3.91296C1.82587 3.72086 1.9816 3.56513 2.1737 3.56513Z"/>
</mask>
<path fill-rule="evenodd" clip-rule="evenodd" d="M5.30439 2.17383C5.30445 1.98178 5.46016 1.82612 5.65222 1.82612H16.087C16.2791 1.82612 16.4348 1.98185 16.4348 2.17394V14.3479C16.4348 14.54 16.2791 14.6957 16.087 14.6957H14.3476V3.92097L14.3479 3.91308C14.3479 3.54991 14.2707 3.27793 14.1327 3.07485C13.8367 2.53772 13.2651 2.17383 12.6085 2.17383H5.30439ZM3.91309 2.17383C3.91315 1.21339 4.69176 0.434814 5.65222 0.434814H16.087C17.0475 0.434814 17.8261 1.21345 17.8261 2.17394V14.3479C17.8261 15.3084 17.0475 16.087 16.087 16.087H14.3476C14.3476 17.0474 13.5689 17.826 12.6085 17.826H2.1737C1.21321 17.826 0.43457 17.0474 0.43457 16.0869V3.91296C0.43457 2.95246 1.21321 2.17383 2.1737 2.17383H3.91309ZM2.1737 3.56513H12.6085C12.8006 3.56513 12.9563 3.72086 12.9563 3.91296V16.0869C12.9563 16.279 12.8006 16.4347 12.6085 16.4347H2.1737C1.9816 16.4347 1.82587 16.279 1.82587 16.0869V3.91296C1.82587 3.72086 1.9816 3.56513 2.1737 3.56513Z" fill="#565858"/>
<path d="M5.30439 2.17383L5.20439 2.1738L5.20436 2.27383H5.30439V2.17383ZM14.3476 14.6957H14.2476V14.7957H14.3476V14.6957ZM14.3476 3.92097L14.2476 3.91774V3.92097H14.3476ZM14.3479 3.91308L14.4479 3.9163V3.91308H14.3479ZM14.1327 3.07485L14.0447 3.12332L14.05 3.13104L14.1327 3.07485ZM3.91309 2.17383V2.27383H4.01308L4.01309 2.17383L3.91309 2.17383ZM14.3476 16.087V15.987H14.2476L14.2476 16.087L14.3476 16.087ZM5.65222 1.72612C5.40494 1.72612 5.20447 1.92654 5.20439 2.1738L5.40439 2.17386C5.40444 2.03703 5.51537 1.92612 5.65222 1.92612V1.72612ZM16.087 1.72612H5.65222V1.92612H16.087V1.72612ZM16.5348 2.17394C16.5348 1.92662 16.3343 1.72612 16.087 1.72612V1.92612C16.2239 1.92612 16.3348 2.03707 16.3348 2.17394H16.5348ZM16.5348 14.3479V2.17394H16.3348V14.3479H16.5348ZM16.087 14.7957C16.3343 14.7957 16.5348 14.5952 16.5348 14.3479H16.3348C16.3348 14.4847 16.2239 14.5957 16.087 14.5957V14.7957ZM14.3476 14.7957H16.087V14.5957H14.3476V14.7957ZM14.4476 14.6957V3.92097H14.2476V14.6957H14.4476ZM14.2479 3.90985L14.2477 3.91774L14.4476 3.92419L14.4478 3.9163L14.2479 3.90985ZM14.05 3.13104C14.1737 3.31315 14.2479 3.56387 14.2479 3.91308H14.4479C14.4479 3.53596 14.3677 3.24272 14.2154 3.01865L14.05 3.13104ZM14.2203 3.02659C13.9074 2.45884 13.303 2.07383 12.6085 2.07383V2.27383C13.2272 2.27383 13.766 2.61661 14.0451 3.12311L14.2203 3.02659ZM12.6085 2.07383H5.30439V2.27383H12.6085V2.07383ZM5.65222 0.334814C4.63653 0.334814 3.81315 1.15815 3.81309 2.17382L4.01309 2.17383C4.01315 1.26862 4.74699 0.534814 5.65222 0.534814V0.334814ZM16.087 0.334814H5.65222V0.534814H16.087V0.334814ZM17.9261 2.17394C17.9261 1.15822 17.1027 0.334814 16.087 0.334814V0.534814C16.9923 0.534814 17.7261 1.26868 17.7261 2.17394H17.9261ZM17.9261 14.3479V2.17394H17.7261V14.3479H17.9261ZM16.087 16.187C17.1027 16.187 17.9261 15.3636 17.9261 14.3479H17.7261C17.7261 15.2531 16.9923 15.987 16.087 15.987V16.187ZM14.3476 16.187H16.087V15.987H14.3476V16.187ZM12.6085 17.926C13.6242 17.926 14.4475 17.1027 14.4476 16.087L14.2476 16.087C14.2476 16.9922 13.5137 17.726 12.6085 17.726V17.926ZM2.1737 17.926H12.6085V17.726H2.1737V17.926ZM0.33457 16.0869C0.33457 17.1026 1.15798 17.926 2.1737 17.926V17.726C1.26843 17.726 0.53457 16.9921 0.53457 16.0869H0.33457ZM0.33457 3.91296V16.0869H0.53457V3.91296H0.33457ZM2.1737 2.07383C1.15798 2.07383 0.33457 2.89723 0.33457 3.91296H0.53457C0.53457 3.00769 1.26843 2.27383 2.1737 2.27383V2.07383ZM3.91309 2.07383H2.1737V2.27383H3.91309V2.07383ZM12.6085 3.46513H2.1737V3.66513H12.6085V3.46513ZM13.0563 3.91296C13.0563 3.66563 12.8558 3.46513 12.6085 3.46513V3.66513C12.7454 3.66513 12.8563 3.77609 12.8563 3.91296H13.0563ZM13.0563 16.0869V3.91296H12.8563V16.0869H13.0563ZM12.6085 16.5347C12.8558 16.5347 13.0563 16.3342 13.0563 16.0869H12.8563C12.8563 16.2237 12.7454 16.3347 12.6085 16.3347V16.5347ZM2.1737 16.5347H12.6085V16.3347H2.1737V16.5347ZM1.72587 16.0869C1.72587 16.3342 1.92637 16.5347 2.1737 16.5347V16.3347C2.03683 16.3347 1.92587 16.2237 1.92587 16.0869H1.72587ZM1.72587 3.91296V16.0869H1.92587V3.91296H1.72587ZM2.1737 3.46513C1.92637 3.46513 1.72587 3.66563 1.72587 3.91296H1.92587C1.92587 3.77609 2.03683 3.66513 2.1737 3.66513V3.46513Z" fill="#F4F4F5" mask="url(#path-1-inside-1_661_19971)"/>
</svg>
