<svg width="14" height="14" viewBox="0 0 14 14" fill="none" xmlns="http://www.w3.org/2000/svg">
<g clip-path="url(#clip0_47_13951)">
<path d="M13.0745 6.8176C11.7639 4.39482 9.46561 2.92871 6.92228 2.92871C4.37895 2.92871 2.07672 4.39482 0.777834 6.8176L0.668945 7.00038L0.770056 7.18704C2.08061 9.60982 4.37895 11.0759 6.92228 11.0759C9.46561 11.0759 11.7678 9.62927 13.0745 7.18704L13.1756 7.00038L13.0745 6.8176ZM6.92228 10.2787C4.73283 10.2787 2.72228 9.0576 1.55561 7.00038C2.72228 4.94316 4.73283 3.72204 6.92228 3.72204C9.11172 3.72204 11.0989 4.94704 12.2851 7.00038C11.0989 9.0576 9.10783 10.2787 6.92228 10.2787Z" fill="#565858"/>
<path d="M9.30274 7.01153C9.30274 8.26399 8.28742 9.27931 7.03497 9.27931C5.78251 9.27931 4.76719 8.26399 4.76719 7.01153C4.76719 5.75907 5.78251 4.74375 7.03497 4.74375C8.28742 4.74375 9.30274 5.75907 9.30274 7.01153Z" stroke="#565858" stroke-width="0.8"/>
</g>
<defs>
<clipPath id="clip0_47_13951">
<rect width="14" height="14" fill="white"/>
</clipPath>
</defs>
</svg>
