<svg width="27" height="27" viewBox="0 0 27 27" fill="none" xmlns="http://www.w3.org/2000/svg">
<path d="M16.9358 16.3158C16.9746 16.4578 16.9875 16.5999 16.9875 16.7291C17.0262 17.5687 16.6516 18.4728 16.0446 19.0283C15.7604 19.2737 15.2954 19.532 14.9337 19.6353C13.7971 20.0358 12.6604 19.4674 11.9887 18.8087C13.2029 18.5245 13.9133 17.6462 14.1458 16.7291C14.3008 15.9412 13.9779 15.2824 13.8487 14.5074C13.7196 13.7583 13.7454 13.1253 14.0166 12.4408C14.2104 12.8153 14.4171 13.2028 14.6625 13.4999C15.4375 14.5074 16.6646 14.9466 16.9358 16.3158ZM26.4166 13.4999C26.4166 20.6041 20.6041 26.4166 13.5 26.4166C6.39581 26.4166 0.583313 20.6041 0.583313 13.4999C0.583313 6.39575 6.39581 0.583252 13.5 0.583252C20.6041 0.583252 26.4166 6.39575 26.4166 13.4999ZM20.165 14.2233L20.0358 13.9649C19.8291 13.4999 19.2479 12.6991 19.2479 12.6991C19.0154 12.402 18.7312 12.1308 18.4729 11.8724C17.7883 11.2653 17.0262 10.8391 16.3675 10.2062C14.8562 8.73367 14.5204 6.31825 15.4891 4.45825C14.5204 4.69075 13.6808 5.20742 12.9575 5.78867C10.3354 7.88117 9.30206 11.5624 10.5421 14.727C10.5808 14.8303 10.6196 14.9337 10.6196 15.0628C10.6196 15.2824 10.4646 15.4762 10.2708 15.5666C10.0254 15.657 9.7929 15.6053 9.62498 15.4374C9.55392 15.3989 9.49559 15.3406 9.45706 15.2695C8.33331 13.8358 8.12665 11.7691 8.88873 10.1287C7.19665 11.4978 6.27956 13.8099 6.39581 15.9799C6.47331 16.4837 6.52498 16.9874 6.70581 17.4912C6.8479 18.0983 7.11915 18.6666 7.42915 19.2349C8.51415 20.9658 10.4129 22.2187 12.4537 22.4641C14.6237 22.7353 16.9487 22.3478 18.615 20.8624C20.475 19.1833 21.1208 16.5095 20.165 14.2233Z" fill="#C61A1A"/>
</svg>
