<svg width="22" height="19" viewBox="0 0 22 19" fill="none" xmlns="http://www.w3.org/2000/svg">
<path d="M16.1033 0.434814C14.1393 0.434814 12.4197 1.27938 11.3479 2.70696C10.276 1.27938 8.55641 0.434814 6.59242 0.434814C5.02905 0.436577 3.53021 1.0584 2.42474 2.16388C1.31927 3.26935 0.697441 4.76818 0.695679 6.33155C0.695679 12.9892 10.567 18.378 10.9874 18.6006C11.0982 18.6602 11.222 18.6914 11.3479 18.6914C11.4737 18.6914 11.5975 18.6602 11.7083 18.6006C12.1287 18.378 22 12.9892 22 6.33155C21.9983 4.76818 21.3764 3.26935 20.271 2.16388C19.1655 1.0584 17.6667 0.436577 16.1033 0.434814ZM11.3479 17.0598C9.61117 16.0479 2.21742 11.4379 2.21742 6.33155C2.21893 5.17169 2.68035 4.05977 3.50049 3.23963C4.32064 2.41948 5.43256 1.95806 6.59242 1.95655C8.44228 1.95655 9.99541 2.94188 10.644 4.52449C10.7014 4.66404 10.7989 4.7834 10.9242 4.8674C11.0495 4.9514 11.197 4.99625 11.3479 4.99625C11.4987 4.99625 11.6462 4.9514 11.7715 4.8674C11.8968 4.7834 11.9943 4.66404 12.0517 4.52449C12.7003 2.93903 14.2534 1.95655 16.1033 1.95655C17.2631 1.95806 18.3751 2.41948 19.1952 3.23963C20.0154 4.05977 20.4768 5.17169 20.4783 6.33155C20.4783 11.4303 13.0826 16.0469 11.3479 17.0598Z" fill="#565858"/>
</svg>
