<svg width="12" height="12" viewBox="0 0 12 12" fill="none" xmlns="http://www.w3.org/2000/svg">
<path d="M11.0267 1.04878C10.8352 0.847444 10.6054 0.686455 10.3507 0.575296C10.0961 0.464138 9.82179 0.405057 9.54397 0.401535C9.26615 0.398012 8.99044 0.450119 8.73306 0.554786C8.47569 0.659453 8.24186 0.814563 8.04535 1.01098L1.48285 7.57348C1.25348 7.80279 1.09419 8.09271 1.02365 8.40928L0.409754 11.1743C0.396943 11.2317 0.398834 11.2915 0.415251 11.348C0.431667 11.4046 0.462079 11.4561 0.503672 11.4977C0.545266 11.5394 0.596696 11.5699 0.653204 11.5864C0.709712 11.6029 0.769472 11.6049 0.826954 11.5922L3.57585 10.9811C3.90306 10.9082 4.20271 10.7436 4.43965 10.5065L10.9903 3.95588C11.3742 3.57175 11.5929 3.05282 11.5997 2.50974C11.6065 1.96666 11.4009 1.44241 11.0267 1.04878ZM8.54025 1.50588C8.66829 1.37599 8.82077 1.27273 8.98889 1.20202C9.15702 1.13132 9.33747 1.09459 9.51986 1.09393C9.70224 1.09328 9.88295 1.12872 10.0516 1.19821C10.2202 1.26771 10.3734 1.36988 10.5024 1.49885C10.6314 1.62782 10.7335 1.78103 10.803 1.94965C10.8725 2.11828 10.908 2.29899 10.9073 2.48138C10.9066 2.66377 10.8699 2.84422 10.7992 3.01234C10.7285 3.18047 10.6252 3.33294 10.4954 3.46098L10.0257 3.93068L8.07055 1.97628L8.54025 1.50588ZM7.57565 2.47188L9.53075 4.42628L3.94475 10.0123C3.80192 10.1553 3.62125 10.2546 3.42395 10.2986L1.21195 10.79L1.70755 8.56188C1.74885 8.37498 1.84265 8.20418 1.97775 8.06908L7.57565 2.47188Z" fill="#565858"/>
</svg>
