<svg width="40" height="40" viewBox="0 0 40 40" fill="none" xmlns="http://www.w3.org/2000/svg">
<path d="M26.9833 3.3335H13.0166C6.94998 3.3335 3.33331 6.95016 3.33331 13.0168V26.9668C3.33331 33.0502 6.94998 36.6668 13.0166 36.6668H26.9666C33.0333 36.6668 36.65 33.0502 36.65 26.9835V13.0168C36.6666 6.95016 33.05 3.3335 26.9833 3.3335ZM30 21.2502H21.25V30.0002C21.25 30.6835 20.6833 31.2502 20 31.2502C19.3166 31.2502 18.75 30.6835 18.75 30.0002V21.2502H9.99998C9.31665 21.2502 8.74998 20.6835 8.74998 20.0002C8.74998 19.3168 9.31665 18.7502 9.99998 18.7502H18.75V10.0002C18.75 9.31683 19.3166 8.75016 20 8.75016C20.6833 8.75016 21.25 9.31683 21.25 10.0002V18.7502H30C30.6833 18.7502 31.25 19.3168 31.25 20.0002C31.25 20.6835 30.6833 21.2502 30 21.2502Z" fill="#D4D4D8"/>
</svg>
