<svg width="22" height="24" viewBox="0 0 22 24" fill="none" xmlns="http://www.w3.org/2000/svg">
<path d="M8.86875 4.6875V4.7875H8.96875H13.0312H13.1313V4.6875V4.28125C13.1313 3.71601 12.9067 3.17392 12.507 2.77423C12.1073 2.37454 11.5652 2.15 11 2.15C10.4348 2.15 9.89267 2.37454 9.49298 2.77423C9.09329 3.17392 8.86875 3.71601 8.86875 4.28125V4.6875ZM7.34375 4.7875H7.44375V4.6875V4.28125C7.44375 3.33807 7.81843 2.43353 8.48535 1.7666C9.15228 1.09968 10.0568 0.725 11 0.725C11.9432 0.725 12.8477 1.09968 13.5146 1.7666C14.1816 2.43353 14.5562 3.33807 14.5562 4.28125V4.6875V4.7875H14.6562H20.75C20.939 4.7875 21.1202 4.86257 21.2538 4.99619C21.3874 5.12981 21.4625 5.31103 21.4625 5.5C21.4625 5.68897 21.3874 5.87019 21.2538 6.00381C21.1202 6.13743 20.939 6.2125 20.75 6.2125H19.5247H19.4355L19.4254 6.30115L17.8881 19.7626C17.8881 19.7626 17.8881 19.7626 17.8881 19.7627C17.7776 20.7296 17.315 21.6221 16.5886 22.2699C15.8621 22.9177 14.9227 23.2755 13.9494 23.275H13.9494H8.05062H8.05058C7.07728 23.2755 6.13786 22.9177 5.41144 22.2699C4.68502 21.6221 4.22242 20.7296 4.11185 19.7626L2.5746 6.30115L2.56448 6.2125H2.47525H1.25C1.06103 6.2125 0.879806 6.13743 0.746186 6.00381C0.612567 5.87019 0.5375 5.68897 0.5375 5.5C0.5375 5.31103 0.612567 5.12981 0.746186 4.99619C0.879806 4.86257 1.06103 4.7875 1.25 4.7875H7.34375ZM17.9894 6.32386L18.0021 6.2125H17.89H4.11081H3.99874L4.01146 6.32385L5.52839 19.6001C5.52839 19.6001 5.52839 19.6001 5.5284 19.6001C5.59902 20.2192 5.89494 20.7906 6.35978 21.2055C6.82463 21.6205 7.42589 21.8499 8.04898 21.85H13.9502C14.5733 21.8499 15.1746 21.6205 15.6394 21.2055C16.1042 20.7906 16.4002 20.2192 16.4708 19.6001L17.9894 6.32386ZM8.5625 9.25625C8.75147 9.25625 8.93269 9.33132 9.06631 9.46494C9.19993 9.59856 9.275 9.77978 9.275 9.96875V18.0938C9.275 18.2827 9.19993 18.4639 9.06631 18.5976C8.93269 18.7312 8.75147 18.8062 8.5625 18.8062C8.37353 18.8062 8.19231 18.7312 8.05869 18.5976C7.92507 18.4639 7.85 18.2827 7.85 18.0938V9.96875C7.85 9.77978 7.92507 9.59856 8.05869 9.46494C8.19231 9.33132 8.37353 9.25625 8.5625 9.25625ZM13.9413 9.46494C14.0749 9.59856 14.15 9.77978 14.15 9.96875V18.0938C14.15 18.2827 14.0749 18.4639 13.9413 18.5976C13.8077 18.7312 13.6265 18.8062 13.4375 18.8062C13.2485 18.8062 13.0673 18.7312 12.9337 18.5976C12.8001 18.4639 12.725 18.2827 12.725 18.0938V9.96875C12.725 9.77978 12.8001 9.59856 12.9337 9.46494C13.0673 9.33132 13.2485 9.25625 13.4375 9.25625C13.6265 9.25625 13.8077 9.33132 13.9413 9.46494Z" fill="#565858" stroke="#F4F4F5" stroke-width="0.2"/>
</svg>
